Coordinates
version=1
nRows=15
nColumns=63
inDegrees=yes

Units are S.I. units (second, meters, Newtons, ...)
If the header above contains a line with 'inDegrees', this indicates whether rotational values are in degrees (yes) or radians (no).

endheader
time	pelvis_tilt	pelvis_list	pelvis_rotation	pelvis_tx	pelvis_ty	pelvis_tz	hip_flexion_r	hip_adduction_r	hip_rotation_r	knee_angle_r	knee_angle_r_beta	ankle_angle_r	subtalar_angle_r	mtp_angle_r	hip_flexion_l	hip_adduction_l	hip_rotation_l	knee_angle_l	knee_angle_l_beta	ankle_angle_l	subtalar_angle_l	mtp_angle_l	L5_S1_Flex_Ext	L5_S1_Lat_Bending	L5_S1_axial_rotation	L4_L5_Flex_Ext	L4_L5_Lat_Bending	L4_L5_axial_rotation	L3_L4_Flex_Ext	L3_L4_Lat_Bending	L3_L4_axial_rotation	L2_L3_Flex_Ext	L2_L3_Lat_Bending	L2_L3_axial_rotation	L1_L2_Flex_Ext	L1_L2_Lat_Bending	L1_L2_axial_rotation	L1_T12_Flex_Ext	L1_T12_Lat_Bending	L1_T12_axial_rotation	Abs_r3	Abs_r2	Abs_r1	Abs_t1	Abs_t2	neck_flexion	neck_bending	neck_rotation	arm_flex_r	arm_add_r	arm_rot_r	elbow_flex_r	pro_sup_r	wrist_flex_r	wrist_dev_r	arm_flex_l	arm_add_l	arm_rot_l	elbow_flex_l	pro_sup_l	wrist_flex_l	wrist_dev_l
4.909091	1.730025	-2.432800	88.182465	0.297250	0.805578	0.477417	-6.041707	-0.096343	8.291768	0.310415	0.005418	16.555222	-13.183028	0.000000	-6.156376	-2.087545	14.392289	0.407087	0.007105	22.069845	-12.539633	0.000000	-0.073683	0.315326	1.657782	-0.136836	0.419383	1.761393	-0.121054	0.766683	1.761393	-0.084212	0.766683	1.450559	-0.068422	0.643012	1.346948	-0.042102	0.488439	1.243336	-0.526309	3.567027	9.220084	0.000000	0.000000	26.115955	0.081251	1.156144	6.860564	-6.140670	44.747185	36.540783	54.307421	-4.905614	19.698504	14.073154	-3.729208	52.482353	38.113548	81.210545	4.435063	14.620473
4.931818	1.936125	-2.496512	88.450469	0.297137	0.805791	0.477852	-5.931066	0.144613	7.973900	0.307182	0.005361	16.364450	-13.075262	0.000000	-6.031069	-2.358659	14.696991	0.412803	0.007205	22.045612	-12.569992	0.000000	-0.069713	0.335462	1.606627	-0.129464	0.446164	1.707041	-0.114531	0.815642	1.707041	-0.079675	0.815642	1.405799	-0.064735	0.684074	1.305385	-0.039834	0.519630	1.204970	-0.497953	3.794810	8.935578	0.000000	0.000000	26.192833	0.127954	1.379630	6.911290	-6.171247	45.095291	36.344659	54.012428	-5.083509	19.370169	14.060964	-3.671583	52.536010	37.948772	81.399024	4.819775	14.647435
4.954545	2.159882	-2.601398	88.624284	0.297107	0.805978	0.478431	-5.742871	0.398768	7.845284	0.303206	0.005292	16.167789	-13.076647	0.000000	-5.865407	-2.641833	14.950122	0.419216	0.007317	22.020535	-12.658352	0.000000	-0.062000	0.357771	1.566557	-0.115140	0.475836	1.664467	-0.101859	0.869885	1.664467	-0.070859	0.869885	1.370738	-0.057573	0.729567	1.272828	-0.035427	0.554188	1.174918	-0.442857	4.047180	8.712723	0.000000	0.000000	26.316279	0.174595	1.645996	6.951833	-6.199939	45.413016	36.170020	53.682719	-5.284747	19.069359	14.067279	-3.594910	52.576048	37.751768	81.692773	5.273872	14.696508
4.977273	2.403717	-2.742521	88.729858	0.297117	0.806136	0.479121	-5.491491	0.668241	7.835312	0.298562	0.005211	15.976737	-13.111376	0.000000	-5.665092	-2.940769	15.092982	0.425766	0.007431	22.013847	-12.670262	0.000000	-0.050881	0.382550	1.530220	-0.094491	0.508791	1.625859	-0.083592	0.930131	1.625859	-0.058152	0.930131	1.338942	-0.047248	0.780095	1.243304	-0.029073	0.592569	1.147665	-0.363438	4.327477	8.510624	0.000000	0.000000	26.469553	0.204218	1.905991	6.991622	-6.235891	45.681785	36.016974	53.353729	-5.470754	18.865019	14.090524	-3.516468	52.643220	37.551642	82.047373	5.709674	14.759171
5.000000	2.639188	-2.931533	88.715291	0.297206	0.806239	0.479917	-5.162616	0.921489	7.995869	0.293954	0.005130	15.799115	-13.193804	0.000000	-5.423782	-3.219409	15.098158	0.432902	0.007556	21.990854	-12.660197	0.000000	-0.035552	0.407384	1.505360	-0.066024	0.541821	1.599445	-0.058409	0.990515	1.599445	-0.040633	0.990515	1.317190	-0.033014	0.830738	1.223105	-0.020315	0.631039	1.129020	-0.253946	4.608415	8.372360	0.000000	0.000000	26.651376	0.294436	2.266357	7.047599	-6.273805	45.966567	35.861772	53.087645	-5.607023	18.642085	14.115128	-3.428509	52.658584	37.361125	82.352736	6.151595	14.898111
5.022727	2.867732	-3.132826	88.608194	0.297326	0.806323	0.480733	-4.808092	1.157565	8.317877	0.288755	0.005040	15.630754	-13.349063	0.000000	-5.183655	-3.477606	15.033882	0.440044	0.007680	21.935758	-12.673684	0.000000	-0.019793	0.431470	1.489464	-0.036758	0.573855	1.582556	-0.032518	1.049075	1.582556	-0.022622	1.049075	1.303281	-0.018380	0.879853	1.210190	-0.011310	0.668346	1.117098	-0.141381	4.880870	8.283954	0.000000	0.000000	26.843488	0.350354	2.547328	7.101223	-6.298931	46.154234	35.691732	52.864444	-5.694990	18.464158	14.137431	-3.324309	52.636718	37.150000	82.607980	6.567330	14.962931
5.045455	3.070843	-3.366936	88.399676	0.297464	0.806360	0.481540	-4.410896	1.356765	8.789976	0.283857	0.004954	15.478368	-13.555954	0.000000	-4.923029	-3.694639	14.847378	0.447375	0.007808	21.862012	-12.658616	0.000000	-0.000837	0.453996	1.473697	-0.001554	0.603815	1.565803	-0.001375	1.103846	1.565803	-0.000956	1.103846	1.289485	-0.000777	0.925789	1.197379	-0.000478	0.703240	1.105272	-0.005977	5.135696	8.196259	0.000000	0.000000	27.033080	0.451608	2.930879	7.207272	-6.302697	46.458123	35.451548	52.750478	-5.692335	18.258791	14.106543	-3.216478	52.471787	36.948109	82.730049	6.899454	14.988742
5.068182	3.261294	-3.616604	88.127010	0.297581	0.806365	0.482370	-3.998277	1.536462	9.355553	0.280421	0.004894	15.341123	-13.809631	0.000000	-4.654289	-3.888452	14.647785	0.454027	0.007924	21.726744	-12.720134	0.000000	0.017141	0.475604	1.457114	0.031832	0.632554	1.548183	0.028161	1.156384	1.548183	0.019590	1.156384	1.274974	0.015917	0.969852	1.183905	0.009794	0.736711	1.092835	0.122435	5.380131	8.104028	0.000000	0.000000	27.225689	0.599058	3.367297	7.385671	-6.321163	46.976106	35.156112	52.555723	-5.630866	17.956744	14.060057	-3.101338	52.218148	36.747528	82.942251	7.199545	14.968410
5.090909	3.401385	-3.888318	87.789277	0.297659	0.806301	0.483143	-3.575722	1.655918	10.097143	0.267619	0.004671	15.178051	-14.250312	0.000000	-4.375409	-4.016510	14.485112	0.446764	0.007798	21.525811	-12.947540	0.000000	0.036679	0.492557	1.440558	0.068116	0.655101	1.530593	0.060260	1.197603	1.530593	0.041920	1.197603	1.260488	0.034060	1.004422	1.170453	0.020958	0.762971	1.080418	0.261994	5.571902	8.011950	0.000000	0.000000	27.428503	0.750086	3.842550	7.588081	-6.335204	47.576399	34.830866	52.460283	-5.484231	17.638504	13.965722	-2.993579	51.844252	36.578280	83.279248	7.468701	14.857814
5.113636	3.501180	-4.177178	87.415273	0.297681	0.806182	0.483859	-3.142632	1.727042	10.751654	0.272016	0.004748	15.074446	-14.545446	0.000000	-4.072489	-4.091758	14.194896	0.457024	0.007977	21.366703	-13.074352	0.000000	0.058142	0.505842	1.419099	0.107976	0.672769	1.507793	0.095522	1.229904	1.507793	0.066451	1.229904	1.241712	0.053991	1.031512	1.153018	0.033223	0.783549	1.064325	0.415305	5.722183	7.892605	0.000000	0.000000	27.594893	0.926506	4.381409	7.823198	-6.348141	48.335733	34.474599	52.394398	-5.269367	17.275815	13.832857	-2.902217	51.430678	36.436761	83.585450	7.669540	14.663550
5.136364	3.545889	-4.460076	86.990029	0.297674	0.806020	0.484462	-2.732335	1.730082	11.361451	0.277319	0.004840	15.004600	-14.732803	0.000000	-3.782140	-4.096583	13.768939	0.463289	0.008086	21.253239	-13.106183	0.000000	0.078636	0.513731	1.397120	0.146036	0.683262	1.484440	0.129192	1.249085	1.484440	0.089873	1.249085	1.222480	0.073022	1.047600	1.135160	0.044933	0.795769	1.047840	0.561691	5.811426	7.770363	0.000000	0.000000	27.747763	1.109426	4.958593	8.071307	-6.352154	49.200584	34.104333	52.400676	-4.974746	16.922787	13.653319	-2.844636	51.019190	36.349577	83.772802	7.741836	14.420767
5.159091	3.552863	-4.736380	86.593567	0.297596	0.805809	0.484949	-2.354048	1.693033	11.884257	0.283974	0.004956	14.944239	-14.891556	0.000000	-3.493976	-4.058626	13.280154	0.466574	0.008143	21.196180	-13.037846	0.000000	0.099040	0.517843	1.363254	0.183928	0.688731	1.448458	0.162714	1.259083	1.448458	0.113193	1.259083	1.192848	0.091969	1.055985	1.107644	0.056592	0.802139	1.022441	0.707436	5.857942	7.582011	0.000000	0.000000	27.875157	1.335323	5.622083	8.317144	-6.343169	50.159609	33.722020	52.469330	-4.656113	16.527856	13.456442	-2.827931	50.665862	36.314519	84.020450	7.782048	14.171271
5.181818	3.510475	-4.995025	86.218123	0.297499	0.805572	0.485358	-2.017756	1.607253	12.209122	0.292733	0.005109	14.922006	-14.854439	0.000000	-3.218425	-3.969274	12.718334	0.469762	0.008199	21.196751	-12.869463	0.000000	0.117121	0.516232	1.326987	0.217506	0.686588	1.409923	0.192419	1.255166	1.409923	0.133858	1.255166	1.161113	0.108759	1.052700	1.078177	0.066923	0.799643	0.995240	0.836587	5.839717	7.380302	0.000000	0.000000	27.972818	1.575951	6.306834	8.568128	-6.320959	51.224751	33.314129	52.397349	-4.340716	16.051951	13.274174	-2.855654	50.414925	36.302161	84.481218	7.853305	13.852803
5.204545	3.414273	-5.225069	85.881630	0.297406	0.805317	0.485664	-1.739735	1.468356	12.404131	0.302501	0.005280	14.904094	-14.738464	0.000000	-2.969506	-3.827383	12.039292	0.471633	0.008232	21.263878	-12.473055	0.000000	0.131989	0.507737	1.284396	0.245117	0.675290	1.364671	0.216845	1.234512	1.364671	0.150850	1.234512	1.123847	0.122565	1.035378	1.043572	0.075418	0.786485	0.963297	0.942783	5.743625	7.143428	0.000000	0.000000	28.036096	1.848069	7.002963	8.841668	-6.282827	52.494127	32.917205	51.793550	-4.146079	15.590459	13.052428	-2.922343	50.108503	36.340075	85.094052	7.926687	13.510022
5.227273	3.292830	-5.423752	85.642412	0.297256	0.805043	0.485848	-1.526434	1.309828	12.404157	0.312858	0.005460	14.911575	-14.505505	0.000000	-2.748149	-3.666073	11.480523	0.473843	0.008270	21.334369	-12.104296	0.000000	0.144423	0.495556	1.229305	0.268208	0.659090	1.306136	0.237273	1.204896	1.306136	0.165061	1.204896	1.075642	0.134111	1.010539	0.998810	0.082523	0.767617	0.921979	1.031599	5.605834	6.837025	0.000000	0.000000	28.062746	2.170276	7.716240	9.094620	-6.236320	53.742504	32.565650	51.178882	-3.996750	15.188657	12.802752	-3.004496	49.772252	36.401817	85.591247	7.996612	13.207949
